# xmcd
#
# Track frame offsets:
#	150
#	21943
#	43499
#	57294
#	75349
#
# Disc length: 1262 seconds
#
# Revision: 1
# Processed by: cddbd v1.5.1PL2 Copyright (c) Steve Scherf et al.
# Submitted via: CDmax 2.0
#
DISCID=3904ec05
DTITLE=Mike Ireland and Holler - MI&H
DYEAR=2002
DGENRE=Country
TTITLE0=For The Good Times
TTITLE1=I'd Like To
TTITLE2=Tonight
TTITLE3=Welcome Back
TTITLE4=Try Again
EXTD=Signed Bonus CDR with direct pre-order of Try Again\n\nalso contains vid
EXTD=eo of 8/98 appearance on TNN's "Nashville Now"
EXTT0=Intended for Kris Kristofferson tribute - unreleased
EXTT1=Trio version released on Bloodshot Records' "Down To The Promised Land"
EXTT2=Trio version featured on: Hit The Hay Vol. 3 and Freight Train Boogie
EXTT3=Alternate voice/guitar version
EXTT4=Alternate mix features band and pian, no strings
PLAYORDER=
